<?xml version="1.0" encoding="UTF-8"?>
<svg xmlns="http://www.w3.org/2000/svg" xmlns:xlink="http://www.w3.org/1999/xlink" width="85pt" height="85pt" viewBox="0 0 85 85" version="1.1">
<g id="surface1">
<path style=" stroke:none;fill-rule:nonzero;fill:rgb(100%,85.490196%,27.058824%);fill-opacity:1;" d="M 2.777344 16.042969 L 66.902344 16.042969 L 66.902344 33.882812 L 2.777344 33.882812 Z M 2.777344 16.042969 "/>
<path style=" stroke:none;fill-rule:nonzero;fill:rgb(98.039216%,78.431373%,0%);fill-opacity:1;" d="M 59.75 16.042969 L 66.902344 16.042969 L 66.902344 33.882812 L 59.75 33.882812 Z M 59.75 16.042969 "/>
<path style=" stroke:none;fill-rule:nonzero;fill:rgb(100%,96.078431%,96.078431%);fill-opacity:1;" d="M 39.546875 16.042969 L 59.835938 16.042969 L 59.835938 33.882812 L 39.546875 33.882812 Z M 39.546875 16.042969 "/>
<path style=" stroke:none;fill-rule:nonzero;fill:rgb(94.117647%,96.078431%,98.039216%);fill-opacity:1;" d="M 80.175781 83.753906 L 16.546875 83.753906 C 11.339844 83.753906 7.121094 79.535156 7.121094 74.328125 C 7.121094 69.125 11.339844 64.90625 16.546875 64.90625 L 80.175781 64.90625 Z M 80.175781 83.753906 "/>
<path style=" stroke:none;fill-rule:nonzero;fill:rgb(89.411765%,92.54902%,94.901961%);fill-opacity:1;" d="M 73.527344 64.90625 L 80.175781 64.90625 L 80.175781 83.753906 L 73.527344 83.753906 Z M 73.527344 64.90625 "/>
<path style=" stroke:none;fill-rule:nonzero;fill:rgb(43.137255%,61.960784%,100%);fill-opacity:1;" d="M 83.503906 85 L 16.546875 85 C 10.664062 85 5.875 80.214844 5.875 74.328125 C 5.875 68.445312 10.660156 63.660156 16.546875 63.660156 L 83.503906 63.660156 C 84.191406 63.660156 84.75 64.21875 84.75 64.90625 C 84.75 65.597656 84.191406 66.152344 83.503906 66.152344 L 16.546875 66.152344 C 12.039062 66.152344 8.371094 69.820312 8.371094 74.328125 C 8.371094 78.839844 12.039062 82.503906 16.546875 82.503906 L 83.503906 82.503906 C 84.191406 82.503906 84.75 83.0625 84.75 83.753906 C 84.75 84.441406 84.191406 85 83.503906 85 Z M 83.503906 85 "/>
<path style=" stroke:none;fill-rule:nonzero;fill:rgb(77.254902%,84.313725%,90.196078%);fill-opacity:1;" d="M 80.175781 72.4375 L 28.808594 72.4375 C 28.121094 72.4375 27.5625 71.878906 27.5625 71.1875 C 27.5625 70.5 28.121094 69.941406 28.808594 69.941406 L 80.175781 69.941406 Z M 80.175781 72.4375 "/>
<path style=" stroke:none;fill-rule:nonzero;fill:rgb(77.254902%,84.313725%,90.196078%);fill-opacity:1;" d="M 80.175781 78.71875 L 42.449219 78.71875 C 41.761719 78.71875 41.203125 78.160156 41.203125 77.472656 C 41.203125 76.78125 41.761719 76.222656 42.449219 76.222656 L 80.175781 76.222656 Z M 80.175781 78.71875 "/>
<path style=" stroke:none;fill-rule:nonzero;fill:rgb(94.117647%,96.078431%,98.039216%);fill-opacity:1;" d="M 69.511719 62.417969 L 7.59375 62.417969 C 4.226562 62.417969 1.496094 59.691406 1.496094 56.320312 C 1.496094 52.953125 4.226562 50.222656 7.59375 50.222656 L 69.511719 50.222656 Z M 69.511719 62.417969 "/>
<path style=" stroke:none;fill-rule:nonzero;fill:rgb(89.411765%,92.54902%,94.901961%);fill-opacity:1;" d="M 62.859375 50.222656 L 69.511719 50.222656 L 69.511719 62.417969 L 62.859375 62.417969 Z M 62.859375 50.222656 "/>
<path style=" stroke:none;fill-rule:nonzero;fill:rgb(45.490196%,84.705882%,29.411765%);fill-opacity:1;" d="M 73.328125 63.667969 L 7.59375 63.667969 C 3.542969 63.667969 0.25 60.371094 0.25 56.320312 C 0.25 52.269531 3.542969 48.976562 7.59375 48.976562 L 73.328125 48.976562 C 74.015625 48.976562 74.574219 49.535156 74.574219 50.222656 C 74.574219 50.910156 74.015625 51.46875 73.328125 51.46875 L 7.59375 51.46875 C 4.921875 51.46875 2.742188 53.644531 2.742188 56.320312 C 2.742188 58.996094 4.921875 61.171875 7.59375 61.171875 L 73.328125 61.171875 C 74.015625 61.171875 74.574219 61.730469 74.574219 62.417969 C 74.574219 63.109375 74.015625 63.667969 73.328125 63.667969 Z M 73.328125 63.667969 "/>
<path style=" stroke:none;fill-rule:nonzero;fill:rgb(77.254902%,84.313725%,90.196078%);fill-opacity:1;" d="M 69.511719 57.828125 L 52 57.828125 C 51.3125 57.828125 50.753906 57.269531 50.753906 56.582031 C 50.753906 55.890625 51.3125 55.332031 52 55.332031 L 69.511719 55.332031 Z M 69.511719 57.828125 "/>
<path style=" stroke:none;fill-rule:nonzero;fill:rgb(94.117647%,96.078431%,98.039216%);fill-opacity:1;" d="M 22.125 1.246094 L 71.820312 1.246094 C 75.5625 1.246094 78.597656 4.28125 78.597656 8.019531 C 78.597656 11.761719 75.5625 14.796875 71.820312 14.796875 L 22.125 14.796875 Z M 22.125 1.246094 "/>
<path style=" stroke:none;fill-rule:nonzero;fill:rgb(89.411765%,92.54902%,94.901961%);fill-opacity:1;" d="M 71.820312 1.246094 L 65.171875 1.246094 C 68.910156 1.246094 71.945312 4.28125 71.945312 8.019531 C 71.945312 11.761719 68.910156 14.796875 65.171875 14.796875 L 71.820312 14.796875 C 75.5625 14.796875 78.597656 11.761719 78.597656 8.019531 C 78.597656 4.28125 75.5625 1.246094 71.820312 1.246094 Z M 71.820312 1.246094 "/>
<path style=" stroke:none;fill-rule:nonzero;fill:rgb(98.823529%,26.27451%,37.254902%);fill-opacity:1;" d="M 71.820312 16.042969 L 17.886719 16.042969 C 17.195312 16.042969 16.636719 15.484375 16.636719 14.796875 C 16.636719 14.105469 17.195312 13.546875 17.886719 13.546875 L 71.820312 13.546875 C 74.871094 13.546875 77.347656 11.070312 77.347656 8.023438 C 77.347656 4.972656 74.871094 2.496094 71.820312 2.496094 L 17.886719 2.496094 C 17.195312 2.496094 16.636719 1.9375 16.636719 1.246094 C 16.636719 0.558594 17.195312 0 17.886719 0 L 71.820312 0 C 76.246094 0 79.84375 3.597656 79.84375 8.019531 C 79.84375 12.445312 76.246094 16.042969 71.820312 16.042969 Z M 71.820312 16.042969 "/>
<path style=" stroke:none;fill-rule:nonzero;fill:rgb(43.137255%,61.960784%,100%);fill-opacity:1;" d="M 9.992188 33.882812 L 84.140625 33.882812 L 84.140625 48.976562 L 9.992188 48.976562 Z M 9.992188 33.882812 "/>
<path style=" stroke:none;fill-rule:nonzero;fill:rgb(74.901961%,41.176471%,18.823529%);fill-opacity:1;" d="M 61.5 33.882812 L 84.140625 33.882812 L 84.140625 48.976562 L 61.5 48.976562 Z M 61.5 33.882812 "/>
<path style=" stroke:none;fill-rule:nonzero;fill:rgb(67.843137%,37.254902%,17.254902%);fill-opacity:1;" d="M 77.488281 33.882812 L 84.140625 33.882812 L 84.140625 48.976562 L 77.488281 48.976562 Z M 77.488281 33.882812 "/>
<path style=" stroke:none;fill-rule:nonzero;fill:rgb(100%,96.078431%,96.078431%);fill-opacity:1;" d="M 35.503906 43.925781 L 18.539062 43.925781 C 17.160156 43.925781 16.046875 42.808594 16.046875 41.429688 C 16.046875 40.050781 17.160156 38.9375 18.539062 38.9375 L 35.503906 38.9375 C 36.878906 38.9375 37.996094 40.050781 37.996094 41.429688 C 37.996094 42.808594 36.878906 43.925781 35.503906 43.925781 Z M 35.503906 43.925781 "/>
<path style=" stroke:none;fill-rule:nonzero;fill:rgb(100%,96.078431%,96.078431%);fill-opacity:1;" d="M 76.933594 42.675781 L 68.816406 42.675781 C 68.125 42.675781 67.566406 42.117188 67.566406 41.429688 C 67.566406 40.742188 68.125 40.183594 68.816406 40.183594 L 76.933594 40.183594 C 77.625 40.183594 78.183594 40.742188 78.183594 41.429688 C 78.183594 42.117188 77.625 42.675781 76.933594 42.675781 Z M 76.933594 42.675781 "/>
<path style=" stroke:none;fill-rule:nonzero;fill:rgb(40.392157%,47.843137%,56.078431%);fill-opacity:1;" d="M 54.238281 27.761719 C 53.546875 27.761719 52.988281 27.203125 52.988281 26.515625 L 52.988281 23.410156 C 52.988281 22.722656 53.546875 22.164062 54.238281 22.164062 C 54.925781 22.164062 55.484375 22.722656 55.484375 23.410156 L 55.484375 26.515625 C 55.484375 27.203125 54.925781 27.761719 54.238281 27.761719 Z M 54.238281 27.761719 "/>
<path style=" stroke:none;fill-rule:nonzero;fill:rgb(40.392157%,47.843137%,56.078431%);fill-opacity:1;" d="M 49.691406 27.761719 C 49.003906 27.761719 48.445312 27.203125 48.445312 26.515625 L 48.445312 23.410156 C 48.445312 22.722656 49.003906 22.164062 49.691406 22.164062 C 50.378906 22.164062 50.9375 22.722656 50.9375 23.410156 L 50.9375 26.515625 C 50.9375 27.203125 50.378906 27.761719 49.691406 27.761719 Z M 49.691406 27.761719 "/>
<path style=" stroke:none;fill-rule:nonzero;fill:rgb(40.392157%,47.843137%,56.078431%);fill-opacity:1;" d="M 45.148438 27.761719 C 44.457031 27.761719 43.898438 27.203125 43.898438 26.515625 L 43.898438 23.410156 C 43.898438 22.722656 44.457031 22.164062 45.148438 22.164062 C 45.835938 22.164062 46.394531 22.722656 46.394531 23.410156 L 46.394531 26.515625 C 46.394531 27.203125 45.835938 27.761719 45.148438 27.761719 Z M 45.148438 27.761719 "/>
<path style=" stroke:none;fill-rule:nonzero;fill:rgb(77.254902%,84.313725%,90.196078%);fill-opacity:1;" d="M 22.089844 6.773438 L 50.546875 6.773438 C 51.234375 6.773438 51.792969 7.332031 51.792969 8.019531 C 51.792969 8.710938 51.234375 9.269531 50.546875 9.269531 L 22.089844 9.269531 Z M 22.089844 6.773438 "/>
</g>
</svg>
